<svg viewBox="0 0 1000 1000" xmlns="http://www.w3.org/2000/svg"><defs><radialGradient id="b" r="100%" cx="87%" cy="50%"><stop offset="0%" stop-color="#FAD961"/><stop offset="100%" stop-color="#F76B1C"/></radialGradient><clipPath id="a"><path fill="currentColor" d="M762.5 584q-31.5 84-93 166.5T479.5 896q-128.5 63-235-35t-29-229.5Q293 500 206.5 362T263 217q143-7 244-28t246.5 0q145.5 21 93 166t-84 229Z"/></clipPath></defs><g clip-path="url(#a)"><path fill="url(#b)" d="M762.5 584q-31.5 84-93 166.5T479.5 896q-128.5 63-235-35t-29-229.5Q293 500 206.5 362T263 217q143-7 244-28t246.5 0q145.5 21 93 166t-84 229Z"/></g></svg>